<svg width="23" height="23" viewBox="0 0 23 23" fill="none" xmlns="http://www.w3.org/2000/svg">
<path d="M22.1202 0.463748C21.5019 -0.154583 20.4994 -0.154583 19.8811 0.463748L11.5007 8.84416L3.12024 0.463748C2.50191 -0.154583 1.4994 -0.154583 0.881067 0.463748C0.262736 1.08208 0.262736 2.08459 0.881067 2.70292L9.26148 11.0833L0.881067 19.4637C0.262736 20.0821 0.262736 21.0846 0.881067 21.7029C1.4994 22.3212 2.50191 22.3212 3.12024 21.7029L11.5007 13.3225L19.8811 21.7029C20.4994 22.3212 21.5019 22.3212 22.1202 21.7029C22.7386 21.0846 22.7386 20.0821 22.1202 19.4637L13.7398 11.0833L22.1202 2.70292C22.7386 2.08459 22.7386 1.08208 22.1202 0.463748Z" fill="white"/>
</svg>
